PathFileType   4   (X/Y/Z)
DataRate	CameraRate	NumFrames	NumMarkers	Units	OrigDataRate	OrigDataStartFrame	OrigNumFrames
120.0	120.0	12	37	mm	120.0	98	111
Frame#	Time	midhip	hip_r	hip_l	knee_r	knee_l	ankle_r	ankle_l	midasis	asis_r	asis_l	psis_r	psis_l	epicondLat_r	epicondLat_l	epicondMed_r	epicondMed_l	malleolusLat_r	malleolusLat_l	malleolusMedv_r	malleolusMedv_l	neck	subclavicle_r	subclavicle_l	sternalnotch	xyphoidprocess	thighwand_r	thighwand_l	upperleg1_r	upperleg1_l	upperleg2_r	upperleg2_l	shankwand_r	shankwand_l	lowerleg1_r	lowerleg1_l	toe_r	toe_l
 	 	X1	Y1	Z1	X2	Y2	Z2	X3	Y3	Z3	X4	Y4	Z4	X5	Y5	Z5	X6	Y6	Z6	X7	Y7	Z7	X8	Y8	Z8	X9	Y9	Z9	X10	Y10	Z10	X11	Y11	Z11	X12	Y12	Z12	X13	Y13	Z13	X14	Y14	Z14	X15	Y15	Z15	X16	Y16	Z16	X17	Y17	Z17	X18	Y18	Z18	X19	Y19	Z19	X20	Y20	Z20	X21	Y21	Z21	X22	Y22	Z22	X23	Y23	Z23	X24	Y24	Z24	X25	Y25	Z25	X26	Y26	Z26	X27	Y27	Z27	X28	Y28	Z28	X29	Y29	Z29	X30	Y30	Z30	X31	Y31	Z31	X32	Y32	Z32	X33	Y33	Z33	X34	Y34	Z34	X35	Y35	Z35	X36	Y36	Z36	X37	Y37	Z37

	98	0.90000	1616.306	606.908	-262.161	1617.736	620.072	-206.167	1624.675	619.047	-323.402	1537.328	333.622	-211.095	1755.763	339.267	-322.738	1413.947	68.041	-215.699	1889.979	83.175	-339.848	1662.561	683.482	-262.895	1657.230	684.269	-172.831	1667.891	682.695	-352.960	1521.619	697.983	-228.038	1531.683	691.281	-311.877	1531.110	334.584	-165.527	1751.475	337.144	-370.499	1531.159	339.239	-249.743	1746.001	330.316	-281.413	1410.166	69.221	-182.434	1876.616	78.122	-369.040	1414.940	69.837	-243.055	1895.572	88.060	-306.477	1603.957	1017.014	-246.865	1691.615	934.790	-220.221	1681.180	942.325	-308.019	1674.369	952.765	-253.701	1698.484	813.944	-273.650	1678.647	387.359	-217.658	1771.494	434.001	-427.278	1617.966	459.552	-172.659	1742.050	480.422	-345.551	1581.526	380.454	-174.474	1773.011	403.444	-328.353	1466.285	127.163	-114.507	1917.140	226.783	-325.247	1478.509	195.183	-170.814	1837.251	247.162	-333.990	1495.154	39.784	-213.866	1972.314	103.060	-350.388
	99	0.90833	1626.397	605.095	-262.343	1627.809	618.249	-206.307	1635.063	617.320	-323.524	1543.923	332.693	-210.920	1765.824	337.511	-322.114	1415.169	69.532	-215.366	1904.849	83.674	-338.154	1672.630	681.806	-262.874	1667.057	682.520	-172.816	1678.203	681.092	-352.932	1531.571	695.927	-228.564	1541.718	689.341	-312.420	1537.216	333.928	-165.428	1762.262	335.605	-369.944	1538.051	338.024	-249.521	1753.345	327.914	-281.527	1411.324	70.852	-182.114	1891.947	78.463	-367.525	1415.969	71.345	-242.810	1909.639	89.194	-304.518	1613.733	1015.198	-248.135	1701.301	933.045	-221.400	1690.619	940.379	-309.228	1683.213	951.066	-254.801	1707.903	812.063	-274.572	1686.014	384.607	-216.151	1783.270	432.679	-426.033	1625.424	457.633	-171.913	1752.001	478.667	-344.286	1587.998	378.916	-173.828	1782.053	401.308	-326.992	1468.413	127.828	-114.260	1929.167	227.979	-322.845	1482.087	195.381	-170.633	1849.162	247.283	-332.416	1495.578	39.871	-213.794	1987.033	105.155	-347.422
	100	0.91667	1636.611	603.346	-262.647	1638.070	616.415	-206.514	1645.539	615.687	-323.719	1550.996	331.663	-210.811	1776.428	336.096	-321.456	1416.559	71.199	-215.001	1917.695	83.219	-336.327	1682.843	680.166	-262.900	1677.103	680.726	-172.826	1688.583	679.607	-352.973	1541.695	693.893	-229.084	1551.876	687.485	-312.982	1543.793	333.180	-165.404	1773.617	334.393	-369.343	1545.170	336.918	-249.829	1762.978	326.404	-281.630	1412.659	72.678	-181.761	1905.218	77.987	-365.877	1417.135	72.984	-242.466	1921.569	88.914	-302.432	1623.712	1013.335	-249.365	1710.847	931.809	-222.687	1700.135	938.437	-310.648	1691.963	949.408	-255.877	1717.447	810.405	-274.921	1693.792	381.843	-214.672	1795.498	431.760	-424.830	1632.991	455.682	-171.244	1762.523	477.592	-343.328	1594.428	377.300	-173.493	1792.411	400.199	-325.983	1470.787	128.620	-114.005	1940.644	227.791	-320.325	1485.924	195.701	-170.519	1860.839	246.698	-330.907	1496.080	39.975	-213.705	1999.775	105.521	-344.209
	101	0.92500	1646.960	601.664	-263.113	1648.516	614.582	-206.812	1656.091	614.150	-324.012	1558.518	330.551	-210.765	1787.592	335.028	-320.736	1418.133	73.059	-214.597	1928.565	81.781	-334.424	1693.202	678.564	-263.005	1687.377	678.896	-172.890	1699.026	678.232	-353.120	1552.016	691.909	-229.604	1562.173	685.725	-313.560	1550.839	332.353	-165.447	1785.502	333.481	-368.666	1550.435	341.232	-249.529	1773.641	325.794	-281.304	1414.194	74.712	-181.371	1916.487	76.665	-364.159	1418.372	74.756	-242.034	1931.379	87.139	-300.341	1633.931	1011.447	-250.672	1719.852	931.447	-224.100	1703.468	936.238	-311.005	1701.238	947.784	-257.053	1721.421	808.811	-273.661	1701.969	379.093	-213.304	1808.052	431.157	-423.684	1648.347	454.585	-170.945	1773.563	477.048	-342.540	1601.668	375.864	-173.275	1803.430	399.967	-324.964	1473.436	129.556	-113.726	1951.635	226.219	-317.671	1490.065	196.083	-170.460	1872.608	245.492	-329.253	1496.679	40.103	-213.596	2010.627	104.126	-340.855
	102	0.93333	1657.457	600.037	-263.759	1659.126	612.758	-207.228	1666.707	612.704	-324.428	1566.461	329.372	-210.774	1799.277	334.285	-319.933	1419.907	75.128	-214.147	1937.595	79.472	-332.484	1703.705	676.991	-263.219	1697.871	677.033	-173.038	1709.538	676.950	-353.400	1562.555	690.002	-230.126	1572.624	684.074	-314.156	1558.351	331.458	-165.543	1797.830	332.821	-367.889	1559.540	339.126	-249.556	1785.491	325.803	-280.280	1415.952	76.967	-180.932	1925.903	74.599	-362.414	1419.875	76.875	-241.719	1939.101	84.020	-298.308	1643.997	1009.663	-252.130	1724.325	928.360	-224.200	1711.116	934.325	-311.929	1710.957	946.227	-258.325	1723.386	806.092	-274.823	1710.527	376.382	-212.116	1820.796	430.758	-422.625	1656.548	452.511	-170.645	1784.992	476.847	-341.846	1610.190	374.515	-172.961	1815.209	400.193	-323.734	1476.394	130.647	-113.405	1962.193	223.391	-314.855	1494.586	196.567	-170.371	1884.143	243.637	-327.414	1497.392	40.264	-213.464	2019.762	101.076	-337.452
	103	0.94167	1668.119	598.455	-264.567	1669.870	610.947	-207.789	1677.385	611.339	-324.993	1574.798	328.138	-210.826	1811.398	333.836	-319.038	1421.909	77.418	-213.634	1945.029	76.534	-330.524	1714.347	675.437	-263.565	1708.559	675.135	-173.305	1720.135	675.739	-353.824	1573.328	688.195	-230.655	1583.234	682.540	-314.771	1566.318	330.504	-165.677	1810.478	332.363	-367.006	1569.038	337.324	-249.845	1798.528	326.228	-278.817	1417.969	79.449	-180.429	1933.729	72.011	-360.659	1421.814	79.379	-241.552	1945.087	79.834	-296.472	1653.773	1008.081	-253.666	1734.796	926.662	-225.312	1723.264	932.779	-313.528	1721.204	944.716	-259.707	1735.849	804.539	-276.389	1719.450	373.729	-211.148	1833.594	430.448	-421.685	1665.751	450.841	-170.759	1796.821	476.941	-341.328	1619.070	373.032	-172.993	1827.785	400.615	-322.487	1479.695	131.900	-113.026	1972.361	219.563	-311.854	1499.393	197.179	-170.260	1894.641	240.985	-325.374	1498.234	40.461	-213.306	2027.447	96.607	-334.083
	104	0.95000	1678.930	596.904	-265.522	1680.717	609.155	-208.519	1688.124	610.052	-325.727	1583.531	326.855	-210.911	1823.844	333.663	-318.058	1424.184	79.940	-213.036	1951.187	73.286	-328.562	1725.125	673.897	-264.059	1719.417	673.205	-173.725	1730.834	674.588	-354.393	1584.319	686.510	-231.186	1593.986	681.137	-315.403	1574.746	329.497	-165.835	1823.309	332.069	-366.028	1578.513	335.879	-250.462	1812.345	326.821	-277.429	1420.288	82.168	-179.838	1940.302	69.187	-358.909	1423.999	82.070	-241.208	1949.289	74.921	-294.718	1663.527	1006.632	-255.298	1751.621	926.004	-227.427	1740.102	931.628	-315.973	1731.890	943.281	-261.165	1758.714	804.111	-278.692	1728.739	371.151	-210.411	1846.313	430.134	-420.898	1675.770	449.250	-171.296	1808.988	477.157	-340.922	1628.003	371.429	-173.402	1840.840	401.204	-321.517	1483.376	133.320	-112.576	1982.183	215.090	-308.668	1504.511	197.815	-170.223	1903.767	237.424	-323.173	1499.217	40.694	-213.119	2034.023	91.053	-330.824
	105	0.95833	1689.849	595.382	-266.614	1691.653	607.399	-209.430	1698.929	608.857	-326.641	1592.677	325.527	-211.012	1836.496	333.761	-317.019	1426.784	82.707	-212.330	1956.452	70.070	-326.605	1736.032	672.385	-264.708	1730.422	671.260	-174.322	1741.642	673.509	-355.093	1595.497	684.963	-231.710	1604.847	679.875	-316.045	1583.651	328.444	-166.001	1836.191	331.930	-364.983	1588.434	334.060	-251.298	1826.140	327.640	-275.932	1422.964	85.137	-179.137	1946.014	66.432	-357.167	1426.384	84.952	-240.625	1952.076	69.569	-292.739	1673.505	1005.133	-256.965	1762.011	924.962	-228.702	1750.659	930.296	-317.677	1743.078	941.940	-262.736	1769.845	802.971	-279.786	1738.420	368.669	-209.889	1858.840	429.757	-420.284	1685.591	447.298	-171.832	1821.387	477.399	-340.688	1637.397	369.757	-173.965	1853.917	401.882	-320.709	1487.473	134.910	-112.048	1991.703	210.358	-305.337	1510.173	198.519	-170.228	1912.446	233.225	-321.151	1500.345	40.958	-212.897	2039.850	84.790	-327.747
	106	0.96667	1700.832	593.912	-267.824	1702.675	605.710	-210.520	1709.803	607.783	-327.730	1602.275	324.160	-211.108	1849.233	334.137	-315.965	1429.775	85.736	-211.498	1961.184	67.179	-324.689	1747.053	670.941	-265.508	1741.555	669.343	-175.107	1752.550	672.540	-355.909	1606.812	683.560	-232.209	1615.769	678.761	-316.682	1593.063	327.351	-166.153	1849.009	331.962	-363.916	1598.703	331.974	-252.079	1839.983	328.586	-274.299	1426.061	88.369	-178.308	1951.220	64.006	-355.461	1429.045	88.089	-239.923	1955.107	64.708	-290.354	1683.627	1003.610	-258.710	1772.513	924.004	-229.936	1761.302	929.011	-319.179	1754.409	940.838	-264.320	1781.108	801.906	-280.733	1748.535	366.315	-209.551	1871.105	429.317	-419.840	1695.486	445.109	-172.290	1833.894	477.600	-340.612	1647.243	367.952	-174.497	1867.006	402.523	-320.051	1492.031	136.675	-111.435	2000.955	205.718	-301.949	1516.237	199.340	-170.028	1921.865	229.384	-318.980	1501.625	41.243	-212.629	2045.241	78.189	-324.920
	107	0.97500	1711.823	592.564	-269.119	1713.788	604.130	-211.774	1720.745	606.875	-328.981	1612.371	322.763	-211.168	1861.924	334.791	-314.955	1433.229	89.043	-210.538	1965.659	64.800	-322.870	1758.161	669.628	-266.448	1752.797	667.511	-176.074	1763.525	671.745	-356.823	1618.219	682.295	-232.658	1626.699	677.801	-317.285	1603.027	326.228	-166.261	1861.671	332.189	-362.884	1609.282	329.792	-252.616	1854.435	329.623	-272.781	1429.648	91.878	-177.351	1956.181	62.066	-353.837	1432.060	91.487	-239.036	1959.856	61.549	-288.089	1693.912	1002.306	-260.576	1783.119	923.147	-231.207	1771.977	927.860	-320.614	1765.490	939.984	-265.843	1792.275	800.944	-281.713	1759.144	364.139	-209.361	1883.095	428.867	-419.545	1705.938	442.938	-172.909	1846.311	477.786	-340.745	1657.573	366.133	-174.959	1880.279	403.232	-319.735	1497.102	138.620	-110.737	2009.949	201.414	-298.640	1522.554	200.235	-169.594	1932.263	227.117	-316.424	1503.059	41.539	-212.312	2050.397	71.585	-322.409
	108	0.98333	1722.882	591.412	-270.475	1725.004	602.708	-213.165	1731.748	606.188	-330.365	1623.021	321.345	-211.154	1874.430	335.695	-314.052	1437.239	92.638	-209.469	1970.004	62.970	-321.246	1769.325	668.518	-267.506	1764.128	665.836	-177.194	1774.522	671.199	-357.819	1629.671	681.158	-233.032	1637.590	677.000	-317.820	1613.594	325.082	-166.286	1874.098	332.631	-361.953	1620.395	327.709	-253.258	1868.835	331.038	-271.413	1433.807	95.671	-176.284	1960.995	60.634	-352.385	1435.575	95.213	-237.865	1966.288	59.779	-286.297	1704.510	1001.423	-262.331	1793.763	922.497	-232.510	1782.686	927.040	-322.126	1776.120	939.408	-267.263	1803.141	800.221	-282.878	1770.315	362.199	-209.280	1894.851	428.506	-419.361	1716.890	441.015	-173.622	1858.543	478.223	-341.145	1668.342	364.370	-175.524	1893.384	404.237	-319.712	1502.744	140.755	-109.952	2018.649	197.551	-295.585	1529.395	201.323	-169.149	1943.026	226.724	-313.867	1504.648	41.826	-211.955	2055.359	65.260	-320.281
	109	0.99167	1734.076	590.517	-271.875	1736.327	601.497	-214.654	1742.802	605.772	-331.843	1634.284	319.916	-211.018	1886.602	336.779	-313.319	1441.906	96.509	-208.330	1974.188	61.602	-319.895	1780.510	667.683	-268.650	1775.525	664.392	-178.424	1785.495	670.974	-358.875	1641.134	680.143	-233.314	1648.425	676.362	-318.264	1624.823	323.923	-166.180	1886.220	333.278	-361.190	1632.073	325.974	-254.057	1881.887	332.926	-269.993	1438.625	99.734	-175.147	1965.594	59.614	-351.175	1439.833	99.333	-236.476	1972.795	58.529	-285.004	1715.323	1000.992	-263.876	1804.418	922.292	-233.751	1793.515	926.646	-323.618	1786.803	939.128	-268.645	1813.960	799.918	-283.942	1782.118	360.555	-209.265	1906.447	428.347	-419.247	1728.584	439.521	-174.327	1870.743	479.097	-341.684	1679.530	362.618	-176.197	1905.846	405.440	-319.613	1509.017	143.088	-109.080	2026.979	194.106	-292.972	1537.103	202.669	-168.656	1953.292	227.140	-311.616	1506.385	42.075	-211.584	2060.025	59.420	-318.580
